<svg xmlns="http://www.w3.org/2000/svg" version="1.1" xmlns:xlink="http://www.w3.org/1999/xlink" width="512" height="512" x="0" y="0" viewBox="0 0 1000 1000" style="enable-background:new 0 0 512 512" xml:space="preserve" class=""><g><path fill="#ff4d4f" d="M238.51 881.48A154.9 154.9 0 0 1 104.26 649l261.49-453a154.89 154.89 0 0 1 268.5 0l261.49 453a154.89 154.89 0 0 1-134.25 232.48z" opacity="1" data-original="#ff3d00" class=""></path><path fill="#ff4d4f" d="M443.69 241 182.2 694c-25 43.34 6.26 97.53 56.31 97.53h523c50 0 81.34-54.19 56.31-97.53L556.31 241c-25.03-43.31-87.59-43.31-112.62 0z" opacity="1" data-original="#c62828" class=""></path><g fill="#eee"><path d="M460 354.88h80V582.7h-80z" fill="#eeeeee" opacity="1" data-original="#eeeeee" class=""></path><circle cx="500" cy="665.12" r="40" fill="#eeeeee" opacity="1" data-original="#eeeeee" class=""></circle></g></g></svg>