<svg id="Layer_2_00000078036227835817529150000013970788441890966417_" enable-background="new 0 0 512 512" viewBox="71 0 370 512" xmlns="http://www.w3.org/2000/svg"><g id="Icon"><g id="_40"><path d="m441 40v432c0 22.1-17.9 40-40 40h-290c-22.1 0-40-17.9-40-40v-432c0-22.1 17.9-40 40-40h290c22.1 0 40 17.9 40 40z" fill="#f2f2f2"/><path d="m148.7 105.2h-46.4v-11.8h17.7v-60.2h-17.7v-11.8h29.1v72h17.3zm2.3-27.1v-29.7c0-7.7 2.7-14.4 8-20s11.8-8.4 19.5-8.4 14.2 2.8 19.5 8.4 8 12.3 8 20v29.7c0 7.7-2.7 14.4-8 20.2-5.3 5.7-11.8 8.6-19.5 8.6s-14.2-2.8-19.5-8.6c-5.3-5.7-8-12.5-8-20.2zm11.6-29.7v29.7c0 4.5 1.6 8.5 4.7 11.8 3.1 3.4 6.8 5.1 11.2 5.1s8.1-1.7 11.2-5.1 4.6-7.3 4.6-11.8v-29.7c0-4.5-1.6-8.3-4.6-11.6-3.1-3.3-6.9-4.9-11.2-4.9-4.4 0-8.2 1.6-11.2 4.9-3.1 3.3-4.7 7.1-4.7 11.6z"/><path d="m363.3 406.8h46.4v11.8h-17.7v60.2h17.7v11.8h-29.1v-72h-17.3zm-2.3 27.1v29.7c0 7.7-2.7 14.4-8 20s-11.8 8.4-19.5 8.4-14.2-2.8-19.5-8.4-8-12.3-8-20v-29.7c0-7.7 2.7-14.5 8-20.1 5.3-5.7 11.8-8.5 19.5-8.5s14.2 2.9 19.5 8.5c5.3 5.7 8 12.4 8 20.1zm-11.6 29.7v-29.7c0-4.5-1.5-8.5-4.6-11.9s-6.9-5-11.2-5-8.1 1.7-11.2 5.1-4.6 7.3-4.6 11.8v29.7c0 4.5 1.5 8.3 4.6 11.6s6.9 4.9 11.2 4.9 8.1-1.6 11.2-4.9 4.6-7.1 4.6-11.6z"/><path d="m147.4 146c-.9 0-1.7.1-2.5.2 1.6-2.6 2.5-5.6 2.5-8.8 0-9.2-7.5-16.7-16.7-16.7s-16.7 7.5-16.7 16.7c0 3.2.9 6.2 2.5 8.8-.8-.1-1.7-.2-2.5-.2-9.2 0-16.7 7.5-16.7 16.7s7.5 16.7 16.7 16.7c5.7 0 10.6-2.8 13.7-7.1.2 7.7-2.2 13.8-6.9 18.5h19.9c-4.7-4.7-7.1-10.8-6.9-18.5 3 4.3 8 7.1 13.7 7.1 9.2 0 16.7-7.5 16.7-16.7s-7.6-16.7-16.8-16.7z"/><path d="m364.6 366c.9 0 1.7-.1 2.5-.2-1.6 2.5-2.5 5.6-2.5 8.8 0 9.2 7.5 16.7 16.7 16.7s16.7-7.5 16.7-16.7c0-3.2-.9-6.2-2.5-8.8.8.1 1.7.2 2.5.2 9.2 0 16.7-7.5 16.7-16.7s-7.5-16.7-16.7-16.7c-5.6 0-10.6 2.8-13.6 7.1-.2-7.7 2.2-13.8 6.9-18.5h-19.9c4.6 4.7 7.1 10.8 6.9 18.5-3-4.3-8-7.1-13.6-7.1-9.2 0-16.7 7.5-16.7 16.7s7.4 16.7 16.6 16.7z"/><path d="m292 235c-1.9 0-3.7.2-5.4.4 3.4-5.5 5.4-12 5.4-18.9 0-19.9-16.1-36-36-36s-36 16.1-36 36c0 7 2 13.4 5.4 18.9-1.8-.3-3.6-.4-5.4-.4-19.9 0-36 16.1-36 36s16.1 36 36 36c12.2 0 22.9-6.1 29.4-15.3.4 16.6-4.8 29.7-14.9 39.8h42.8c-10-10.1-15.2-23.2-14.9-39.8 6.5 9.2 17.2 15.3 29.4 15.3 19.9 0 36-16.1 36-36s-16-36-35.8-36z"/></g></g></svg>