<svg id="Layer_2_00000026134070809739891480000017259555432939971726_" enable-background="new 0 0 512 512" viewBox="71 0 370 512" xmlns="http://www.w3.org/2000/svg"><g id="Icon"><g id="_14"><path d="m441 40v432c0 22.1-17.9 40-40 40h-290c-22.1 0-40-17.9-40-40v-432c0-22.1 17.9-40 40-40h290c22.1 0 40 17.9 40 40z" fill="#f2f2f2"/><path d="m148.7 105.2h-46.4v-11.8h17.7v-60.2h-17.7v-11.8h29.1v72h17.3zm2.3-27.1v-29.7c0-7.7 2.7-14.4 8-20s11.8-8.4 19.5-8.4 14.2 2.8 19.5 8.4 8 12.3 8 20v29.7c0 7.7-2.7 14.4-8 20.2-5.3 5.7-11.8 8.6-19.5 8.6s-14.2-2.8-19.5-8.6c-5.3-5.7-8-12.5-8-20.2zm11.6-29.7v29.7c0 4.5 1.6 8.5 4.7 11.8 3.1 3.4 6.8 5.1 11.2 5.1s8.1-1.7 11.2-5.1 4.6-7.3 4.6-11.8v-29.7c0-4.5-1.6-8.3-4.6-11.6-3.1-3.3-6.9-4.9-11.2-4.9-4.4 0-8.2 1.6-11.2 4.9-3.1 3.3-4.7 7.1-4.7 11.6z"/><path d="m363.3 406.8h46.4v11.8h-17.7v60.2h17.7v11.8h-29.1v-72h-17.3zm-2.3 27.1v29.7c0 7.7-2.7 14.4-8 20s-11.8 8.4-19.5 8.4-14.2-2.8-19.5-8.4-8-12.3-8-20v-29.7c0-7.7 2.7-14.5 8-20.1 5.3-5.7 11.8-8.5 19.5-8.5s14.2 2.9 19.5 8.5c5.3 5.7 8 12.4 8 20.1zm-11.6 29.7v-29.7c0-4.5-1.5-8.5-4.6-11.9s-6.9-5-11.2-5-8.1 1.7-11.2 5.1-4.6 7.3-4.6 11.8v29.7c0 4.5 1.5 8.3 4.6 11.6s6.9 4.9 11.2 4.9 8.1-1.6 11.2-4.9 4.6-7.1 4.6-11.6z"/><path d="m353.3 363.2 2.6 2.6 25.4 25.4 28-28c7-7 7-18.4 0-25.4-6.9-6.9-17.9-7-24.9-.4.3-6.7 2.7-12 6.9-16.2h-19.9c4.2 4.2 6.6 9.6 6.9 16.2-7-6.6-18.1-6.5-24.9.4-7.1 7.1-7.1 18.4-.1 25.4z"/><path d="m316.4 240.9-5.7-5.7-54.7-54.6-60.4 60.4c-15.1 15.1-15.1 39.6 0 54.7 14.8 14.8 38.6 15.1 53.8.8-.7 14.4-5.8 25.9-14.8 35h42.9c-9-9.1-14.2-20.6-14.8-35 15.2 14.2 39 14 53.8-.8 15-15.2 15-39.7-.1-54.8z"/><path d="m158.7 148.8-2.6-2.6-25.4-25.4-28 28c-7 7-7 18.4 0 25.4 6.9 6.9 17.9 7 24.9.4-.3 6.7-2.7 12-6.9 16.2h19.9c-4.2-4.2-6.6-9.6-6.9-16.2 7 6.6 18.1 6.5 24.9-.4 7.1-7.1 7.1-18.4.1-25.4z"/></g></g></svg>