<svg id="Layer_2_00000164498692678440840210000011918489201224327054_" enable-background="new 0 0 512 512" viewBox="71 0 370 512" xmlns="http://www.w3.org/2000/svg"><g id="Icon"><g id="_32"><path d="m441 40v432c0 22.1-17.9 40-40 40h-290c-22.1 0-40-17.9-40-40v-432c0-22.1 17.9-40 40-40h290c22.1 0 40 17.9 40 40z" fill="#f2f2f2"/><path d="m145.2 84.2h10.7v21.6h-53.6v-5.5c0-10.1 3.7-19.1 11.1-27.1 2.9-3.1 9.8-8.6 20.7-16.5 7.4-5.4 11.1-10 11.1-13.9 0-3.6-2.1-6.4-6.2-8.4-3.2-1.6-6.9-2.4-11-2.4-10 0-15 3.3-15 10 0 1.4.4 3 1.1 4.7l-10 4.2c-1.2-3.1-1.8-6.1-1.8-8.9 0-6.9 2.6-12.3 7.8-16 4.7-3.3 10.6-5 17.9-5s13.5 1.8 18.8 5.4c6.1 4.1 9.1 9.5 9.1 16.4 0 6.4-3.2 12.4-9.7 18-6.3 4.8-12.6 9.6-18.9 14.4-7.4 6.1-11.8 12.7-13.4 19.6h31.2z"/><path d="m366.8 427.8h-10.7v-21.6h53.6v5.5c0 10.1-3.7 19.1-11.1 27.1-2.9 3.1-9.8 8.6-20.7 16.5-7.4 5.4-11.1 10-11.1 13.9 0 3.6 2 6.4 6.2 8.4 3.2 1.6 6.9 2.4 11 2.4 10 0 15-3.3 15-10 0-1.4-.4-3-1.1-4.7l10-4.2c1.2 3.1 1.8 6.1 1.8 8.9 0 6.9-2.6 12.3-7.8 16-4.7 3.3-10.6 5-17.9 5s-13.5-1.8-18.8-5.4c-6.1-4.1-9.1-9.5-9.1-16.4 0-6.4 3.2-12.4 9.6-18l18.9-14.4c7.4-6.1 11.8-12.7 13.4-19.6h-31.2z"/><path d="m147.4 146c-.9 0-1.7.1-2.5.2 1.6-2.6 2.5-5.6 2.5-8.8 0-9.2-7.5-16.7-16.7-16.7s-16.7 7.5-16.7 16.7c0 3.2.9 6.2 2.5 8.8-.8-.1-1.7-.2-2.5-.2-9.2 0-16.7 7.5-16.7 16.7s7.5 16.7 16.7 16.7c5.7 0 10.6-2.8 13.7-7.1.2 7.7-2.2 13.8-6.9 18.5h19.9c-4.7-4.7-7.1-10.8-6.9-18.5 3 4.3 8 7.1 13.7 7.1 9.2 0 16.7-7.5 16.7-16.7s-7.6-16.7-16.8-16.7z"/><path d="m364.6 366c.9 0 1.7-.1 2.5-.2-1.6 2.5-2.5 5.6-2.5 8.8 0 9.2 7.5 16.7 16.7 16.7s16.7-7.5 16.7-16.7c0-3.2-.9-6.2-2.5-8.8.8.1 1.7.2 2.5.2 9.2 0 16.7-7.5 16.7-16.7s-7.5-16.7-16.7-16.7c-5.6 0-10.6 2.8-13.6 7.1-.2-7.7 2.2-13.8 6.9-18.5h-19.9c4.6 4.7 7.1 10.8 6.9 18.5-3-4.3-8-7.1-13.6-7.1-9.2 0-16.7 7.5-16.7 16.7s7.4 16.7 16.6 16.7z"/><path d="m292 235c-1.9 0-3.7.2-5.4.4 3.4-5.5 5.4-12 5.4-18.9 0-19.9-16.1-36-36-36s-36 16.1-36 36c0 7 2 13.4 5.4 18.9-1.8-.3-3.6-.4-5.4-.4-19.9 0-36 16.1-36 36s16.1 36 36 36c12.2 0 22.9-6.1 29.4-15.3.4 16.6-4.8 29.7-14.9 39.8h42.8c-10-10.1-15.2-23.2-14.9-39.8 6.5 9.2 17.2 15.3 29.4 15.3 19.9 0 36-16.1 36-36s-16-36-35.8-36z"/></g></g></svg>