<svg id="Layer_2_00000122713565636573694820000000216419681089095862_" enable-background="new 0 0 512 512" viewBox="71 0 370 512" xmlns="http://www.w3.org/2000/svg"><g id="Icon"><g id="_19"><path d="m441 40v432c0 22.1-17.9 40-40 40h-290c-22.1 0-40-17.9-40-40v-432c0-22.1 17.9-40 40-40h290c22.1 0 40 17.9 40 40z" fill="#f2f2f2"/><g fill="#fe0000"><path d="m145.2 84.2h10.7v21.6h-53.6v-5.5c0-10.1 3.7-19.1 11.1-27.1 2.9-3.1 9.8-8.6 20.7-16.5 7.4-5.4 11.1-10 11.1-13.9 0-3.6-2.1-6.4-6.2-8.4-3.2-1.6-6.9-2.4-11-2.4-10 0-15 3.3-15 10 0 1.4.4 3 1.1 4.7l-10 4.2c-1.2-3.1-1.8-6.1-1.8-8.9 0-6.9 2.6-12.3 7.8-16 4.7-3.3 10.6-5 17.9-5s13.5 1.8 18.8 5.4c6.1 4.1 9.1 9.5 9.1 16.4 0 6.4-3.2 12.4-9.7 18-6.3 4.8-12.6 9.6-18.9 14.4-7.4 6.1-11.8 12.7-13.4 19.6h31.2z"/><path d="m366.8 427.8h-10.7v-21.6h53.6v5.5c0 10.1-3.7 19.1-11.1 27.1-2.9 3.1-9.8 8.6-20.7 16.5-7.4 5.4-11.1 10-11.1 13.9 0 3.6 2 6.4 6.2 8.4 3.2 1.6 6.9 2.4 11 2.4 10 0 15-3.3 15-10 0-1.4-.4-3-1.1-4.7l10-4.2c1.2 3.1 1.8 6.1 1.8 8.9 0 6.9-2.6 12.3-7.8 16-4.7 3.3-10.6 5-17.9 5s-13.5-1.8-18.8-5.4c-6.1-4.1-9.1-9.5-9.1-16.4 0-6.4 3.2-12.4 9.6-18l18.9-14.4c7.4-6.1 11.8-12.7 13.4-19.6h-31.2z"/><path d="m164.1 127.1c-8.4-8.4-21.9-8.4-30.3 0l-3.1 3.1-3.1-3.1c-8.4-8.4-21.9-8.4-30.3 0-8.4 8.4-8.4 21.9 0 30.3l3.1 3.1 30.3 30.3 33.4-33.4c8.4-8.4 8.4-22 0-30.3z"/><path d="m347.9 385c8.4 8.4 21.9 8.4 30.3 0l3.1-3.1 3.1 3.1c8.4 8.4 21.9 8.4 30.3 0 8.4-8.4 8.4-21.9 0-30.3l-3.1-3.1-30.3-30.3-33.4 33.4c-8.4 8.3-8.4 21.9 0 30.3z"/><path d="m328.1 194.1c-18-18-47.3-18-65.3 0l-6.8 6.8-6.8-6.8c-18-18-47.3-18-65.3 0-18 18-18 47.3 0 65.3l6.8 6.8 65.3 65.3 72.1-72.1c18-18 18-47.3 0-65.3z"/></g></g></g></svg>