<svg id="Layer_2_00000143584673362578501840000012906354548847706519_" enable-background="new 0 0 512 512" viewBox="71 0 370 512" xmlns="http://www.w3.org/2000/svg"><g id="Icon"><g id="_46"><path d="m441 40v432c0 22.1-17.9 40-40 40h-290c-22.1 0-40-17.9-40-40v-432c0-22.1 17.9-40 40-40h290c22.1 0 40 17.9 40 40z" fill="#f2f2f2"/><g fill="#fe0000"><path d="m129.7 105.9c-6.4 0-12.1-2.2-17.2-6.6-4.6-4-8-9.2-10.2-15.6l10.2-3.6c1.4 4.2 3.5 7.6 6.3 10.2 3.2 3.1 6.9 4.6 10.9 4.6 5.1 0 9.4-2 13.1-6s5.5-8.5 5.5-13.6-1.6-9-4.7-12.2c-3.1-3.1-7.2-4.7-12.3-4.7-2.3 0-4.2.3-5.5.9s-2.9 1.8-4.8 3.5l-7.7-7.6 24.9-23.4h-24v10.7h-10.7v-21.6h54.7v6.9l-21.3 20.2c6.7 1.3 12.1 4.4 16.2 9.5 4 5 6.1 11 6.1 18 0 8.1-2.9 15.2-8.7 21.3-5.9 6-12.8 9.1-20.8 9.1z"/><path d="m382.3 406.1c6.4 0 12.1 2.2 17.2 6.6 4.6 4 8 9.2 10.2 15.6l-10.2 3.6c-1.4-4.2-3.5-7.6-6.3-10.2-3.2-3-6.9-4.6-10.9-4.6-5.1 0-9.5 2-13.1 6-3.7 4-5.5 8.5-5.5 13.6s1.6 9 4.7 12.2c3.1 3.1 7.2 4.7 12.3 4.7 2.3 0 4.2-.3 5.5-.9s2.9-1.8 4.8-3.5l7.7 7.6-24.9 23.4h24v-10.7h10.7v21.7h-54.7v-6.9l21.3-20.2c-6.7-1.3-12.1-4.4-16.2-9.5-4-5-6.1-11-6.1-18 0-8.1 2.9-15.2 8.7-21.3 5.9-6.1 12.8-9.2 20.8-9.2z"/><path d="m351.3 356.2 30-35 30 35-30 35z"/><path d="m320.7 256-64.7 75.4-64.7-75.4 64.7-75.4z"/><path d="m160.7 155.8-30 35-30-35 30-35z"/></g></g></g></svg>