<svg id="Layer_2_00000034084059878777739970000007464756235335918249_" enable-background="new 0 0 512 512" viewBox="71 0 370 512" xmlns="http://www.w3.org/2000/svg"><g id="Icon"><g id="_47"><path d="m441 40v432c0 22.1-17.9 40-40 40h-290c-22.1 0-40-17.9-40-40v-432c0-22.1 17.9-40 40-40h290c22.1 0 40 17.9 40 40z" fill="#f2f2f2"/><g fill="#fe0000"><path d="m128.7 94.2h6.8v-8.8h-33.2v-8.7l34.7-55h9.2v52.7h10.3v11h-10.3v8.8h5.1v11h-22.6zm-12.1-19.8h18.9v-29.9s-18.9 29.9-18.9 29.9z"/><path d="m383.3 417.9h-6.8v8.8h33.2v8.7l-34.7 55h-9.2v-52.7h-10.3v-11h10.3v-8.8h-5.1v-11h22.6zm12.1 19.7h-18.9v29.9z"/><path d="m351.3 356.2 30-35 30 35-30 35z"/><path d="m320.7 256-64.7 75.4-64.7-75.4 64.7-75.4z"/><path d="m160.7 155.8-30 35-30-35 30-35z"/></g></g></g></svg>