<svg id="Layer_2_00000119085415004623944220000008331654541939499151_" enable-background="new 0 0 512 512" viewBox="71 0 370 512" xmlns="http://www.w3.org/2000/svg"><g id="Icon"><g id="_21"><path d="m441 40v432c0 22.1-17.9 40-40 40h-290c-22.1 0-40-17.9-40-40v-432c0-22.1 17.9-40 40-40h290c22.1 0 40 17.9 40 40z" fill="#f2f2f2"/><g fill="#fe0000"><path d="m128.7 94.2h6.8v-8.8h-33.2v-8.7l34.7-55h9.2v52.7h10.3v11h-10.3v8.8h5.1v11h-22.6zm-12.1-19.8h18.9v-29.9s-18.9 29.9-18.9 29.9z"/><path d="m383.3 417.9h-6.8v8.8h33.2v8.7l-34.7 55h-9.2v-52.7h-10.3v-11h10.3v-8.8h-5.1v-11h22.6zm12.1 19.7h-18.9v29.9z"/><path d="m164.1 127.1c-8.4-8.4-21.9-8.4-30.3 0l-3.1 3.1-3.1-3.1c-8.4-8.4-21.9-8.4-30.3 0-8.4 8.4-8.4 21.9 0 30.3l3.1 3.1 30.3 30.3 33.4-33.4c8.4-8.4 8.4-22 0-30.3z"/><path d="m347.9 385c8.4 8.4 21.9 8.4 30.3 0l3.1-3.1 3.1 3.1c8.4 8.4 21.9 8.4 30.3 0 8.4-8.4 8.4-21.9 0-30.3l-3.1-3.1-30.3-30.3-33.4 33.4c-8.4 8.3-8.4 21.9 0 30.3z"/><path d="m328.1 194.1c-18-18-47.3-18-65.3 0l-6.8 6.8-6.8-6.8c-18-18-47.3-18-65.3 0-18 18-18 47.3 0 65.3l6.8 6.8 65.3 65.3 72.1-72.1c18-18 18-47.3 0-65.3z"/></g></g></g></svg>