<svg id="Layer_2_00000019657912344205035830000003699660503751589778_" enable-background="new 0 0 512 512" viewBox="71 0 370 512" xmlns="http://www.w3.org/2000/svg"><g id="Icon"><g id="_35"><path d="m441 40v432c0 22.1-17.9 40-40 40h-290c-22.1 0-40-17.9-40-40v-432c0-22.1 17.9-40 40-40h290c22.1 0 40 17.9 40 40z" fill="#f2f2f2"/><path d="m129.1 106.1c-6 0-11.5-2.1-16.5-6.2-4.4-3.8-7.8-8.7-10.3-14.7l10-4.2c1.6 3.9 3.7 7.1 6.4 9.6 3.1 3 6.6 4.5 10.4 4.5 5.4 0 9.8-2.5 13.3-7.5 3.2-4.4 4.8-9.4 4.8-14.8s-1.6-10.4-4.8-14.7c-3.5-4.7-7.9-7.1-13.3-7.1-4.6 0-9.2 2.5-13.7 7.4l-7.8-4.6v-33.1h40.6v11h-29.9v10.7c3.5-1.6 7-2.4 10.7-2.4 8.4 0 15.4 3.4 21 10.3 5.3 6.4 7.9 13.9 7.9 22.5s-2.6 16.2-7.8 22.7c-5.6 7.1-12.6 10.6-21 10.6z"/><path d="m382.9 405.9c6 0 11.5 2.1 16.5 6.2 4.4 3.8 7.8 8.7 10.3 14.7l-10 4.2c-1.6-3.9-3.7-7.1-6.4-9.6-3.1-3-6.6-4.5-10.4-4.5-5.4 0-9.8 2.5-13.3 7.5-3.2 4.5-4.8 9.4-4.8 14.8s1.6 10.4 4.8 14.7c3.5 4.7 7.9 7.1 13.3 7.1 4.6 0 9.2-2.5 13.7-7.4l7.8 4.6v33.1h-40.6v-11h29.9v-10.7c-3.5 1.6-7 2.4-10.7 2.4-8.4 0-15.4-3.4-21-10.3-5.3-6.4-7.9-13.9-7.9-22.5s2.6-16.2 7.8-22.7c5.6-7.1 12.6-10.6 21-10.6z"/><path d="m147.4 146c-.9 0-1.7.1-2.5.2 1.6-2.6 2.5-5.6 2.5-8.8 0-9.2-7.5-16.7-16.7-16.7s-16.7 7.5-16.7 16.7c0 3.2.9 6.2 2.5 8.8-.8-.1-1.7-.2-2.5-.2-9.2 0-16.7 7.5-16.7 16.7s7.5 16.7 16.7 16.7c5.7 0 10.6-2.8 13.7-7.1.2 7.7-2.2 13.8-6.9 18.5h19.9c-4.7-4.7-7.1-10.8-6.9-18.5 3 4.3 8 7.1 13.7 7.1 9.2 0 16.7-7.5 16.7-16.7s-7.6-16.7-16.8-16.7z"/><path d="m364.6 366c.9 0 1.7-.1 2.5-.2-1.6 2.5-2.5 5.6-2.5 8.8 0 9.2 7.5 16.7 16.7 16.7s16.7-7.5 16.7-16.7c0-3.2-.9-6.2-2.5-8.8.8.1 1.7.2 2.5.2 9.2 0 16.7-7.5 16.7-16.7s-7.5-16.7-16.7-16.7c-5.6 0-10.6 2.8-13.6 7.1-.2-7.7 2.2-13.8 6.9-18.5h-19.9c4.6 4.7 7.1 10.8 6.9 18.5-3-4.3-8-7.1-13.6-7.1-9.2 0-16.7 7.5-16.7 16.7s7.4 16.7 16.6 16.7z"/><path d="m292 235c-1.9 0-3.7.2-5.4.4 3.4-5.5 5.4-12 5.4-18.9 0-19.9-16.1-36-36-36s-36 16.1-36 36c0 7 2 13.4 5.4 18.9-1.8-.3-3.6-.4-5.4-.4-19.9 0-36 16.1-36 36s16.1 36 36 36c12.2 0 22.9-6.1 29.4-15.3.4 16.6-4.8 29.7-14.9 39.8h42.8c-10-10.1-15.2-23.2-14.9-39.8 6.5 9.2 17.2 15.3 29.4 15.3 19.9 0 36-16.1 36-36s-16-36-35.8-36z"/></g></g></svg>