<svg id="Layer_2_00000099657925321125138400000005744298325352357040_" enable-background="new 0 0 512 512" viewBox="71 0 370 512" xmlns="http://www.w3.org/2000/svg"><g id="Icon"><g id="_09"><path d="m441 40v432c0 22.1-17.9 40-40 40h-290c-22.1 0-40-17.9-40-40v-432c0-22.1 17.9-40 40-40h290c22.1 0 40 17.9 40 40z" fill="#f2f2f2"/><path d="m129.1 106.1c-6 0-11.5-2.1-16.5-6.2-4.4-3.8-7.8-8.7-10.3-14.7l10-4.2c1.6 3.9 3.7 7.1 6.4 9.6 3.1 3 6.6 4.5 10.4 4.5 5.4 0 9.8-2.5 13.3-7.5 3.2-4.4 4.8-9.4 4.8-14.8s-1.6-10.4-4.8-14.7c-3.5-4.7-7.9-7.1-13.3-7.1-4.6 0-9.2 2.5-13.7 7.4l-7.8-4.6v-33.1h40.6v11h-29.9v10.7c3.5-1.6 7-2.4 10.7-2.4 8.4 0 15.4 3.4 21 10.3 5.3 6.4 7.9 13.9 7.9 22.5s-2.6 16.2-7.8 22.7c-5.6 7.1-12.6 10.6-21 10.6z"/><path d="m382.9 405.9c6 0 11.5 2.1 16.5 6.2 4.4 3.8 7.8 8.7 10.3 14.7l-10 4.2c-1.6-3.9-3.7-7.1-6.4-9.6-3.1-3-6.6-4.5-10.4-4.5-5.4 0-9.8 2.5-13.3 7.5-3.2 4.5-4.8 9.4-4.8 14.8s1.6 10.4 4.8 14.7c3.5 4.7 7.9 7.1 13.3 7.1 4.6 0 9.2-2.5 13.7-7.4l7.8 4.6v33.1h-40.6v-11h29.9v-10.7c-3.5 1.6-7 2.4-10.7 2.4-8.4 0-15.4-3.4-21-10.3-5.3-6.4-7.9-13.9-7.9-22.5s2.6-16.2 7.8-22.7c5.6-7.1 12.6-10.6 21-10.6z"/><path d="m353.3 363.2 2.6 2.6 25.4 25.4 28-28c7-7 7-18.4 0-25.4-6.9-6.9-17.9-7-24.9-.4.3-6.7 2.7-12 6.9-16.2h-19.9c4.2 4.2 6.6 9.6 6.9 16.2-7-6.6-18.1-6.5-24.9.4-7.1 7.1-7.1 18.4-.1 25.4z"/><path d="m316.4 240.9-5.7-5.7-54.7-54.6-60.4 60.4c-15.1 15.1-15.1 39.6 0 54.7 14.8 14.8 38.6 15.1 53.8.8-.7 14.4-5.8 25.9-14.8 35h42.9c-9-9.1-14.2-20.6-14.8-35 15.2 14.2 39 14 53.8-.8 15-15.2 15-39.7-.1-54.8z"/><path d="m158.7 148.8-2.6-2.6-25.4-25.4-28 28c-7 7-7 18.4 0 25.4 6.9 6.9 17.9 7 24.9.4-.3 6.7-2.7 12-6.9 16.2h19.9c-4.2-4.2-6.6-9.6-6.9-16.2 7 6.6 18.1 6.5 24.9-.4 7.1-7.1 7.1-18.4.1-25.4z"/></g></g></svg>