<svg id="Layer_2_00000013904598737572944800000013917099926855846077_" enable-background="new 0 0 512 512" viewBox="71 0 370 512" xmlns="http://www.w3.org/2000/svg"><g id="Icon"><g id="_23"><path d="m441 40v432c0 22.1-17.9 40-40 40h-290c-22.1 0-40-17.9-40-40v-432c0-22.1 17.9-40 40-40h290c22.1 0 40 17.9 40 40z" fill="#f2f2f2"/><g fill="#fe0000"><path d="m102.6 70.1c-.2.3-.3-2.1-.3-7.1 0-11.7 1.6-21.2 4.8-28.3 4.5-9.8 12-14.7 22.3-14.7 5.1 0 9.8 1.4 14.1 4.1 4.1 2.7 7.5 6.3 10.1 10.8l-9.3 5.6c-3.6-6.3-8.6-9.5-14.9-9.5-8.3 0-13.4 6.2-15.4 18.5 4.6-4.1 9.7-6.1 15.3-6.1 8.3 0 15 3.4 20.2 10.3 4.7 6.2 7 13.6 7 22.2 0 8-2.5 15.1-7.5 21.2-5.3 6.5-11.9 9.7-19.7 9.7-3.9 0-7.9-1.3-12.1-3.8-4.5-2.7-8-7.6-10.7-14.7-2.1-5.5-3.4-11.6-3.9-18.2zm26.7 25.7c4.8 0 8.8-2.2 12-6.6 3-4 4.5-8.4 4.5-13.4 0-5.5-1.4-10.3-4.1-14.4-3.1-4.7-7.2-7.1-12.4-7.1-3.8 0-7.2 1.8-10.3 5.5-2.5 3.1-4.4 6.7-5.6 10.8.6 6.1 1.9 11.4 4 15.8 2.9 6.3 6.9 9.4 11.9 9.4z"/><path d="m409.4 441.9h.1c.1-.3.2 2.1.2 7.1 0 11.7-1.6 21.2-4.8 28.3-4.5 9.8-12 14.7-22.3 14.7-5.1 0-9.8-1.4-14.1-4.1-4.1-2.7-7.5-6.3-10.1-10.8l9.3-5.6c3.6 6.3 8.6 9.5 14.9 9.5 8.3 0 13.4-6.2 15.4-18.5-4.6 4.1-9.7 6.1-15.3 6.1-8.3 0-15-3.4-20.2-10.3-4.7-6.2-7-13.6-7-22.2 0-8 2.5-15.1 7.5-21.2 5.3-6.5 11.9-9.7 19.7-9.7 3.9 0 7.9 1.3 12.1 3.8 4.5 2.7 8 7.6 10.7 14.7 2.1 5.5 3.4 11.6 3.9 18.2zm-26.7-25.7c-4.8 0-8.8 2.2-12 6.6-3 4-4.5 8.5-4.5 13.4 0 5.5 1.4 10.3 4.1 14.4 3.1 4.7 7.2 7.1 12.4 7.1 3.8 0 7.2-1.8 10.3-5.5 2.5-3.1 4.4-6.6 5.6-10.8-.6-6.1-1.9-11.4-4-15.8-2.9-6.3-6.9-9.4-11.9-9.4z"/><path d="m164.1 127.1c-8.4-8.4-21.9-8.4-30.3 0l-3.1 3.1-3.1-3.1c-8.4-8.4-21.9-8.4-30.3 0-8.4 8.4-8.4 21.9 0 30.3l3.1 3.1 30.3 30.3 33.4-33.4c8.4-8.4 8.4-22 0-30.3z"/><path d="m347.9 385c8.4 8.4 21.9 8.4 30.3 0l3.1-3.1 3.1 3.1c8.4 8.4 21.9 8.4 30.3 0 8.4-8.4 8.4-21.9 0-30.3l-3.1-3.1-30.3-30.3-33.4 33.4c-8.4 8.3-8.4 21.9 0 30.3z"/><path d="m328.1 194.1c-18-18-47.3-18-65.3 0l-6.8 6.8-6.8-6.8c-18-18-47.3-18-65.3 0-18 18-18 47.3 0 65.3l6.8 6.8 65.3 65.3 72.1-72.1c18-18 18-47.3 0-65.3z"/></g></g></g></svg>