<svg id="Layer_2_00000182520455798293903330000004426704120324562346_" enable-background="new 0 0 512 512" viewBox="71 0 370 512" xmlns="http://www.w3.org/2000/svg"><g id="Icon"><g id="_10"><path d="m441 40v432c0 22.1-17.9 40-40 40h-290c-22.1 0-40-17.9-40-40v-432c0-22.1 17.9-40 40-40h290c22.1 0 40 17.9 40 40z" fill="#f2f2f2"/><path d="m102.6 70.1c-.2.3-.3-2.1-.3-7.1 0-11.7 1.6-21.2 4.8-28.3 4.5-9.8 12-14.7 22.3-14.7 5.1 0 9.8 1.4 14.1 4.1 4.1 2.7 7.5 6.3 10.1 10.8l-9.3 5.6c-3.6-6.3-8.6-9.5-14.9-9.5-8.3 0-13.4 6.2-15.4 18.5 4.6-4.1 9.7-6.1 15.3-6.1 8.3 0 15 3.4 20.2 10.3 4.7 6.2 7 13.6 7 22.2 0 8-2.5 15.1-7.5 21.2-5.3 6.5-11.9 9.7-19.7 9.7-3.9 0-7.9-1.3-12.1-3.8-4.5-2.7-8-7.6-10.7-14.7-2.1-5.5-3.4-11.6-3.9-18.2zm26.7 25.7c4.8 0 8.8-2.2 12-6.6 3-4 4.5-8.4 4.5-13.4 0-5.5-1.4-10.3-4.1-14.4-3.1-4.7-7.2-7.1-12.4-7.1-3.8 0-7.2 1.8-10.3 5.5-2.5 3.1-4.4 6.7-5.6 10.8.6 6.1 1.9 11.4 4 15.8 2.9 6.3 6.9 9.4 11.9 9.4z"/><path d="m409.4 441.9h.1c.1-.3.2 2.1.2 7.1 0 11.7-1.6 21.2-4.8 28.3-4.5 9.8-12 14.7-22.3 14.7-5.1 0-9.8-1.4-14.1-4.1-4.1-2.7-7.5-6.3-10.1-10.8l9.3-5.6c3.6 6.3 8.6 9.5 14.9 9.5 8.3 0 13.4-6.2 15.4-18.5-4.6 4.1-9.7 6.1-15.3 6.1-8.3 0-15-3.4-20.2-10.3-4.7-6.2-7-13.6-7-22.2 0-8 2.5-15.1 7.5-21.2 5.3-6.5 11.9-9.7 19.7-9.7 3.9 0 7.9 1.3 12.1 3.8 4.5 2.7 8 7.6 10.7 14.7 2.1 5.5 3.4 11.6 3.9 18.2zm-26.7-25.7c-4.8 0-8.8 2.2-12 6.6-3 4-4.5 8.5-4.5 13.4 0 5.5 1.4 10.3 4.1 14.4 3.1 4.7 7.2 7.1 12.4 7.1 3.8 0 7.2-1.8 10.3-5.5 2.5-3.1 4.4-6.6 5.6-10.8-.6-6.1-1.9-11.4-4-15.8-2.9-6.3-6.9-9.4-11.9-9.4z"/><path d="m353.3 363.2 2.6 2.6 25.4 25.4 28-28c7-7 7-18.4 0-25.4-6.9-6.9-17.9-7-24.9-.4.3-6.7 2.7-12 6.9-16.2h-19.9c4.2 4.2 6.6 9.6 6.9 16.2-7-6.6-18.1-6.5-24.9.4-7.1 7.1-7.1 18.4-.1 25.4z"/><path d="m316.4 240.9-5.7-5.7-54.7-54.6-60.4 60.4c-15.1 15.1-15.1 39.6 0 54.7 14.8 14.8 38.6 15.1 53.8.8-.7 14.4-5.8 25.9-14.8 35h42.9c-9-9.1-14.2-20.6-14.8-35 15.2 14.2 39 14 53.8-.8 15-15.2 15-39.7-.1-54.8z"/><path d="m158.7 148.8-2.6-2.6-25.4-25.4-28 28c-7 7-7 18.4 0 25.4 6.9 6.9 17.9 7 24.9.4-.3 6.7-2.7 12-6.9 16.2h19.9c-4.2-4.2-6.6-9.6-6.9-16.2 7 6.6 18.1 6.5 24.9-.4 7.1-7.1 7.1-18.4.1-25.4z"/></g></g></svg>