<svg id="Layer_2_00000049196725889632725210000017895605442436963772_" enable-background="new 0 0 512 512" viewBox="71 0 370 512" xmlns="http://www.w3.org/2000/svg"><g id="Icon"><g id="_50"><path d="m441 40v432c0 22.1-17.9 40-40 40h-290c-22.1 0-40-17.9-40-40v-432c0-22.1 17.9-40 40-40h290c22.1 0 40 17.9 40 40z" fill="#f2f2f2"/><g fill="#fe0000"><path d="m102.3 44.1v-22.3h48.9l5.5 9.6c-13.7 19.6-23.2 44.1-28.5 73.6h-11.7c4.7-27 13-50.8 24.9-71.4h-27.6v10.5z"/><path d="m409.7 467.9v22.3h-48.9l-5.5-9.6c13.7-19.6 23.2-44.1 28.5-73.6h11.7c-4.7 27-13 50.8-24.9 71.4h27.6v-10.5z"/><path d="m351.3 356.2 30-35 30 35-30 35z"/><path d="m320.7 256-64.7 75.4-64.7-75.4 64.7-75.4z"/><path d="m160.7 155.8-30 35-30-35 30-35z"/></g></g></g></svg>