<svg id="Layer_2_00000162325965610453112250000008340907656839943555_" enable-background="new 0 0 512 512" viewBox="71 0 370 512" xmlns="http://www.w3.org/2000/svg"><g id="Icon"><g id="_11"><path d="m441 40v432c0 22.1-17.9 40-40 40h-290c-22.1 0-40-17.9-40-40v-432c0-22.1 17.9-40 40-40h290c22.1 0 40 17.9 40 40z" fill="#f2f2f2"/><path d="m102.3 44.1v-22.3h48.9l5.5 9.6c-13.7 19.6-23.2 44.1-28.5 73.6h-11.7c4.7-27 13-50.8 24.9-71.4h-27.6v10.5z"/><path d="m409.7 467.9v22.3h-48.9l-5.5-9.6c13.7-19.6 23.2-44.1 28.5-73.6h11.7c-4.7 27-13 50.8-24.9 71.4h27.6v-10.5z"/><path d="m353.3 363.2 2.6 2.6 25.4 25.4 28-28c7-7 7-18.4 0-25.4-6.9-6.9-17.9-7-24.9-.4.3-6.7 2.7-12 6.9-16.2h-19.9c4.2 4.2 6.6 9.6 6.9 16.2-7-6.6-18.1-6.5-24.9.4-7.1 7.1-7.1 18.4-.1 25.4z"/><path d="m316.4 240.9-5.7-5.7-54.7-54.6-60.4 60.4c-15.1 15.1-15.1 39.6 0 54.7 14.8 14.8 38.6 15.1 53.8.8-.7 14.4-5.8 25.9-14.8 35h42.9c-9-9.1-14.2-20.6-14.8-35 15.2 14.2 39 14 53.8-.8 15-15.2 15-39.7-.1-54.8z"/><path d="m158.7 148.8-2.6-2.6-25.4-25.4-28 28c-7 7-7 18.4 0 25.4 6.9 6.9 17.9 7 24.9.4-.3 6.7-2.7 12-6.9 16.2h19.9c-4.2-4.2-6.6-9.6-6.9-16.2 7 6.6 18.1 6.5 24.9-.4 7.1-7.1 7.1-18.4.1-25.4z"/></g></g></svg>