<svg id="Layer_2_00000100350369425316292520000001274650324318978463_" enable-background="new 0 0 512 512" viewBox="71 0 370 512" xmlns="http://www.w3.org/2000/svg"><g id="Icon"><g id="_38"><path d="m441 40v432c0 22.1-17.9 40-40 40h-290c-22.1 0-40-17.9-40-40v-432c0-22.1 17.9-40 40-40h290c22.1 0 40 17.9 40 40z" fill="#f2f2f2"/><path d="m129.9 106.1c-7.4 0-13.8-2.4-19.2-7.2-5.6-4.9-8.4-11-8.4-18.3 0-8.5 3.7-15.4 11.1-20.5-5.3-4.4-8-10-8-16.7s2.5-11.9 7.5-16.3c4.8-4.2 10.5-6.3 17-6.3s12.2 2.1 17 6.3c5 4.4 7.5 9.8 7.5 16.3s-2.7 12.2-8 16.7c7.4 5.1 11.1 11.9 11.1 20.5 0 7.3-2.8 13.3-8.2 18.2-5.5 4.8-12 7.3-19.4 7.3zm0-40c-4.3 0-8.2 1.3-11.5 4-3.6 2.8-5.4 6.3-5.4 10.6s1.8 7.7 5.4 10.6c3.3 2.6 7.2 3.9 11.5 3.9s8.2-1.3 11.5-3.9c3.6-2.9 5.4-6.4 5.4-10.6s-1.8-7.8-5.4-10.6c-3.3-2.7-7.2-4-11.5-4zm0-34.3c-3.5 0-6.6 1.1-9.3 3.2-3 2.3-4.5 5.1-4.5 8.5s1.5 6.2 4.5 8.5c2.7 2.1 5.8 3.2 9.3 3.2s6.6-1.1 9.3-3.2c3-2.3 4.5-5.1 4.5-8.5s-1.5-6.2-4.5-8.5c-2.7-2.2-5.8-3.2-9.3-3.2z"/><path d="m382.1 406c7.4 0 13.8 2.4 19.2 7.2 5.6 4.9 8.4 11 8.4 18.3 0 8.5-3.7 15.4-11.1 20.5 5.3 4.4 8 10 8 16.7s-2.5 11.9-7.5 16.3c-4.8 4.2-10.5 6.3-17 6.3s-12.2-2.1-17-6.3c-5-4.4-7.5-9.8-7.5-16.3s2.7-12.2 8-16.7c-7.4-5.1-11.1-11.9-11.1-20.5 0-7.3 2.8-13.3 8.2-18.2 5.5-4.9 12-7.3 19.4-7.3zm0 40c4.3 0 8.2-1.3 11.5-4 3.6-2.8 5.4-6.3 5.4-10.6s-1.8-7.7-5.4-10.6c-3.3-2.6-7.2-3.9-11.5-3.9s-8.2 1.3-11.5 3.9c-3.6 2.9-5.4 6.4-5.4 10.6s1.8 7.8 5.4 10.6c3.3 2.6 7.2 4 11.5 4zm0 34.2c3.5 0 6.6-1.1 9.3-3.2 3-2.3 4.5-5.1 4.5-8.5s-1.5-6.2-4.5-8.5c-2.7-2.1-5.8-3.2-9.3-3.2s-6.6 1.1-9.3 3.2c-3 2.3-4.5 5.1-4.5 8.5s1.5 6.2 4.5 8.5c2.7 2.2 5.8 3.2 9.3 3.2z"/><path d="m147.4 146c-.9 0-1.7.1-2.5.2 1.6-2.6 2.5-5.6 2.5-8.8 0-9.2-7.5-16.7-16.7-16.7s-16.7 7.5-16.7 16.7c0 3.2.9 6.2 2.5 8.8-.8-.1-1.7-.2-2.5-.2-9.2 0-16.7 7.5-16.7 16.7s7.5 16.7 16.7 16.7c5.7 0 10.6-2.8 13.7-7.1.2 7.7-2.2 13.8-6.9 18.5h19.9c-4.7-4.7-7.1-10.8-6.9-18.5 3 4.3 8 7.1 13.7 7.1 9.2 0 16.7-7.5 16.7-16.7s-7.6-16.7-16.8-16.7z"/><path d="m364.6 366c.9 0 1.7-.1 2.5-.2-1.6 2.5-2.5 5.6-2.5 8.8 0 9.2 7.5 16.7 16.7 16.7s16.7-7.5 16.7-16.7c0-3.2-.9-6.2-2.5-8.8.8.1 1.7.2 2.5.2 9.2 0 16.7-7.5 16.7-16.7s-7.5-16.7-16.7-16.7c-5.6 0-10.6 2.8-13.6 7.1-.2-7.7 2.2-13.8 6.9-18.5h-19.9c4.6 4.7 7.1 10.8 6.9 18.5-3-4.3-8-7.1-13.6-7.1-9.2 0-16.7 7.5-16.7 16.7s7.4 16.7 16.6 16.7z"/><path d="m292 235c-1.9 0-3.7.2-5.4.4 3.4-5.5 5.4-12 5.4-18.9 0-19.9-16.1-36-36-36s-36 16.1-36 36c0 7 2 13.4 5.4 18.9-1.8-.3-3.6-.4-5.4-.4-19.9 0-36 16.1-36 36s16.1 36 36 36c12.2 0 22.9-6.1 29.4-15.3.4 16.6-4.8 29.7-14.9 39.8h42.8c-10-10.1-15.2-23.2-14.9-39.8 6.5 9.2 17.2 15.3 29.4 15.3 19.9 0 36-16.1 36-36s-16-36-35.8-36z"/></g></g></svg>