<svg id="Layer_2_00000155825842286436828510000014419181350061838756_" enable-background="new 0 0 512 512" viewBox="71 0 370 512" xmlns="http://www.w3.org/2000/svg"><g id="Icon"><g id="_25"><path d="m441 40v432c0 22.1-17.9 40-40 40h-290c-22.1 0-40-17.9-40-40v-432c0-22.1 17.9-40 40-40h290c22.1 0 40 17.9 40 40z" fill="#f2f2f2"/><g fill="#fe0000"><path d="m129.9 106.1c-7.4 0-13.8-2.4-19.2-7.2-5.6-4.9-8.4-11-8.4-18.3 0-8.5 3.7-15.4 11.1-20.5-5.3-4.4-8-10-8-16.7s2.5-11.9 7.5-16.3c4.8-4.2 10.5-6.3 17-6.3s12.2 2.1 17 6.3c5 4.4 7.5 9.8 7.5 16.3s-2.7 12.2-8 16.7c7.4 5.1 11.1 11.9 11.1 20.5 0 7.3-2.8 13.3-8.2 18.2-5.5 4.8-12 7.3-19.4 7.3zm0-40c-4.3 0-8.2 1.3-11.5 4-3.6 2.8-5.4 6.3-5.4 10.6s1.8 7.7 5.4 10.6c3.3 2.6 7.2 3.9 11.5 3.9s8.2-1.3 11.5-3.9c3.6-2.9 5.4-6.4 5.4-10.6s-1.8-7.8-5.4-10.6c-3.3-2.7-7.2-4-11.5-4zm0-34.3c-3.5 0-6.6 1.1-9.3 3.2-3 2.3-4.5 5.1-4.5 8.5s1.5 6.2 4.5 8.5c2.7 2.1 5.8 3.2 9.3 3.2s6.6-1.1 9.3-3.2c3-2.3 4.5-5.1 4.5-8.5s-1.5-6.2-4.5-8.5c-2.7-2.2-5.8-3.2-9.3-3.2z"/><path d="m382.1 406c7.4 0 13.8 2.4 19.2 7.2 5.6 4.9 8.4 11 8.4 18.3 0 8.5-3.7 15.4-11.1 20.5 5.3 4.4 8 10 8 16.7s-2.5 11.9-7.5 16.3c-4.8 4.2-10.5 6.3-17 6.3s-12.2-2.1-17-6.3c-5-4.4-7.5-9.8-7.5-16.3s2.7-12.2 8-16.7c-7.4-5.1-11.1-11.9-11.1-20.5 0-7.3 2.8-13.3 8.2-18.2 5.5-4.9 12-7.3 19.4-7.3zm0 40c4.3 0 8.2-1.3 11.5-4 3.6-2.8 5.4-6.3 5.4-10.6s-1.8-7.7-5.4-10.6c-3.3-2.6-7.2-3.9-11.5-3.9s-8.2 1.3-11.5 3.9c-3.6 2.9-5.4 6.4-5.4 10.6s1.8 7.8 5.4 10.6c3.3 2.6 7.2 4 11.5 4zm0 34.2c3.5 0 6.6-1.1 9.3-3.2 3-2.3 4.5-5.1 4.5-8.5s-1.5-6.2-4.5-8.5c-2.7-2.1-5.8-3.2-9.3-3.2s-6.6 1.1-9.3 3.2c-3 2.3-4.5 5.1-4.5 8.5s1.5 6.2 4.5 8.5c2.7 2.2 5.8 3.2 9.3 3.2z"/><path d="m164.1 127.1c-8.4-8.4-21.9-8.4-30.3 0l-3.1 3.1-3.1-3.1c-8.4-8.4-21.9-8.4-30.3 0-8.4 8.4-8.4 21.9 0 30.3l3.1 3.1 30.3 30.3 33.4-33.4c8.4-8.4 8.4-22 0-30.3z"/><path d="m347.9 385c8.4 8.4 21.9 8.4 30.3 0l3.1-3.1 3.1 3.1c8.4 8.4 21.9 8.4 30.3 0 8.4-8.4 8.4-21.9 0-30.3l-3.1-3.1-30.3-30.3-33.4 33.4c-8.4 8.3-8.4 21.9 0 30.3z"/><path d="m328.1 194.1c-18-18-47.3-18-65.3 0l-6.8 6.8-6.8-6.8c-18-18-47.3-18-65.3 0-18 18-18 47.3 0 65.3l6.8 6.8 65.3 65.3 72.1-72.1c18-18 18-47.3 0-65.3z"/></g></g></g></svg>