<svg id="Layer_2_00000155124107092818747580000010836737315637574572_" enable-background="new 0 0 512 512" viewBox="71 0 370 512" xmlns="http://www.w3.org/2000/svg"><g id="Icon"><g id="_12"><path d="m441 40v432c0 22.1-17.9 40-40 40h-290c-22.1 0-40-17.9-40-40v-432c0-22.1 17.9-40 40-40h290c22.1 0 40 17.9 40 40z" fill="#f2f2f2"/><path d="m129.9 106.1c-7.4 0-13.8-2.4-19.2-7.2-5.6-4.9-8.4-11-8.4-18.3 0-8.5 3.7-15.4 11.1-20.5-5.3-4.4-8-10-8-16.7s2.5-11.9 7.5-16.3c4.8-4.2 10.5-6.3 17-6.3s12.2 2.1 17 6.3c5 4.4 7.5 9.8 7.5 16.3s-2.7 12.2-8 16.7c7.4 5.1 11.1 11.9 11.1 20.5 0 7.3-2.8 13.3-8.2 18.2-5.5 4.8-12 7.3-19.4 7.3zm0-40c-4.3 0-8.2 1.3-11.5 4-3.6 2.8-5.4 6.3-5.4 10.6s1.8 7.7 5.4 10.6c3.3 2.6 7.2 3.9 11.5 3.9s8.2-1.3 11.5-3.9c3.6-2.9 5.4-6.4 5.4-10.6s-1.8-7.8-5.4-10.6c-3.3-2.7-7.2-4-11.5-4zm0-34.3c-3.5 0-6.6 1.1-9.3 3.2-3 2.3-4.5 5.1-4.5 8.5s1.5 6.2 4.5 8.5c2.7 2.1 5.8 3.2 9.3 3.2s6.6-1.1 9.3-3.2c3-2.3 4.5-5.1 4.5-8.5s-1.5-6.2-4.5-8.5c-2.7-2.2-5.8-3.2-9.3-3.2z"/><path d="m382.1 406c7.4 0 13.8 2.4 19.2 7.2 5.6 4.9 8.4 11 8.4 18.3 0 8.5-3.7 15.4-11.1 20.5 5.3 4.4 8 10 8 16.7s-2.5 11.9-7.5 16.3c-4.8 4.2-10.5 6.3-17 6.3s-12.2-2.1-17-6.3c-5-4.4-7.5-9.8-7.5-16.3s2.7-12.2 8-16.7c-7.4-5.1-11.1-11.9-11.1-20.5 0-7.3 2.8-13.3 8.2-18.2 5.5-4.9 12-7.3 19.4-7.3zm0 40c4.3 0 8.2-1.3 11.5-4 3.6-2.8 5.4-6.3 5.4-10.6s-1.8-7.7-5.4-10.6c-3.3-2.6-7.2-3.9-11.5-3.9s-8.2 1.3-11.5 3.9c-3.6 2.9-5.4 6.4-5.4 10.6s1.8 7.8 5.4 10.6c3.3 2.6 7.2 4 11.5 4zm0 34.2c3.5 0 6.6-1.1 9.3-3.2 3-2.3 4.5-5.1 4.5-8.5s-1.5-6.2-4.5-8.5c-2.7-2.1-5.8-3.2-9.3-3.2s-6.6 1.1-9.3 3.2c-3 2.3-4.5 5.1-4.5 8.5s1.5 6.2 4.5 8.5c2.7 2.2 5.8 3.2 9.3 3.2z"/><path d="m353.3 363.2 2.6 2.6 25.4 25.4 28-28c7-7 7-18.4 0-25.4-6.9-6.9-17.9-7-24.9-.4.3-6.7 2.7-12 6.9-16.2h-19.9c4.2 4.2 6.6 9.6 6.9 16.2-7-6.6-18.1-6.5-24.9.4-7.1 7.1-7.1 18.4-.1 25.4z"/><path d="m316.4 240.9-5.7-5.7-54.7-54.6-60.4 60.4c-15.1 15.1-15.1 39.6 0 54.7 14.8 14.8 38.6 15.1 53.8.8-.7 14.4-5.8 25.9-14.8 35h42.9c-9-9.1-14.2-20.6-14.8-35 15.2 14.2 39 14 53.8-.8 15-15.2 15-39.7-.1-54.8z"/><path d="m158.7 148.8-2.6-2.6-25.4-25.4-28 28c-7 7-7 18.4 0 25.4 6.9 6.9 17.9 7 24.9.4-.3 6.7-2.7 12-6.9 16.2h19.9c-4.2-4.2-6.6-9.6-6.9-16.2 7 6.6 18.1 6.5 24.9-.4 7.1-7.1 7.1-18.4.1-25.4z"/></g></g></svg>