<svg id="Layer_2_00000061429450487916742070000005708451551673344444_" enable-background="new 0 0 512 512" viewBox="71 0 370 512" xmlns="http://www.w3.org/2000/svg"><g id="Icon"><g id="_39"><path d="m441 40v432c0 22.1-17.9 40-40 40h-290c-22.1 0-40-17.9-40-40v-432c0-22.1 17.9-40 40-40h290c22.1 0 40 17.9 40 40z" fill="#f2f2f2"/><path d="m145.4 75c-4.7 3.7-9.9 5.6-15.8 5.6-7.9 0-14.4-3.1-19.7-9.3-5.1-6-7.6-13-7.6-20.9s2.5-15 7.6-20.9c5.3-6.3 11.8-9.4 19.7-9.4 9.7 0 17 5 21.9 15.1 3.7 7.8 5.6 17.2 5.6 28.1 0 11.5-1.8 21-5.5 28.5-4.8 9.9-12.3 14.9-22.6 14.9s-17.9-5.1-23.8-15.4l9.4-5.5c3.7 6.6 8.5 9.9 14.4 9.9 8.7 0 14.2-6.9 16.4-20.7zm-15.8-43.9c-4.8 0-8.8 2.1-12 6.2-3 3.8-4.5 8.2-4.5 13.1s1.5 9.3 4.5 13.1c3.2 4.1 7.2 6.2 12 6.2 4.1 0 7.6-1.6 10.6-4.7 2.7-2.8 4.5-6.3 5.5-10.5-1.9-15.6-7.3-23.4-16.1-23.4z"/><path d="m409.4 441.9h.1c.1-.3.2 2.1.2 7.1 0 11.7-1.6 21.2-4.8 28.3-4.5 9.8-12 14.7-22.3 14.7-5.1 0-9.8-1.4-14.1-4.1-4.1-2.7-7.5-6.3-10.1-10.8l9.3-5.6c3.6 6.3 8.6 9.5 14.9 9.5 8.3 0 13.4-6.2 15.4-18.5-4.6 4.1-9.7 6.1-15.3 6.1-8.3 0-15-3.4-20.2-10.3-4.7-6.2-7-13.6-7-22.2 0-8 2.5-15.1 7.5-21.2 5.3-6.5 11.9-9.7 19.7-9.7 3.9 0 7.9 1.3 12.1 3.8 4.5 2.7 8 7.6 10.7 14.7 2.1 5.5 3.4 11.6 3.9 18.2zm-26.7-25.7c-4.8 0-8.8 2.2-12 6.6-3 4-4.5 8.5-4.5 13.4 0 5.5 1.4 10.3 4.1 14.4 3.1 4.7 7.2 7.1 12.4 7.1 3.8 0 7.2-1.8 10.3-5.5 2.5-3.1 4.4-6.6 5.6-10.8-.6-6.1-1.9-11.4-4-15.8-2.9-6.3-6.9-9.4-11.9-9.4z"/><path d="m147.4 146c-.9 0-1.7.1-2.5.2 1.6-2.6 2.5-5.6 2.5-8.8 0-9.2-7.5-16.7-16.7-16.7s-16.7 7.5-16.7 16.7c0 3.2.9 6.2 2.5 8.8-.8-.1-1.7-.2-2.5-.2-9.2 0-16.7 7.5-16.7 16.7s7.5 16.7 16.7 16.7c5.7 0 10.6-2.8 13.7-7.1.2 7.7-2.2 13.8-6.9 18.5h19.9c-4.7-4.7-7.1-10.8-6.9-18.5 3 4.3 8 7.1 13.7 7.1 9.2 0 16.7-7.5 16.7-16.7s-7.6-16.7-16.8-16.7z"/><path d="m364.6 366c.9 0 1.7-.1 2.5-.2-1.6 2.5-2.5 5.6-2.5 8.8 0 9.2 7.5 16.7 16.7 16.7s16.7-7.5 16.7-16.7c0-3.2-.9-6.2-2.5-8.8.8.1 1.7.2 2.5.2 9.2 0 16.7-7.5 16.7-16.7s-7.5-16.7-16.7-16.7c-5.6 0-10.6 2.8-13.6 7.1-.2-7.7 2.2-13.8 6.9-18.5h-19.9c4.6 4.7 7.1 10.8 6.9 18.5-3-4.3-8-7.1-13.6-7.1-9.2 0-16.7 7.5-16.7 16.7s7.4 16.7 16.6 16.7z"/><path d="m292 235c-1.9 0-3.7.2-5.4.4 3.4-5.5 5.4-12 5.4-18.9 0-19.9-16.1-36-36-36s-36 16.1-36 36c0 7 2 13.4 5.4 18.9-1.8-.3-3.6-.4-5.4-.4-19.9 0-36 16.1-36 36s16.1 36 36 36c12.2 0 22.9-6.1 29.4-15.3.4 16.6-4.8 29.7-14.9 39.8h42.8c-10-10.1-15.2-23.2-14.9-39.8 6.5 9.2 17.2 15.3 29.4 15.3 19.9 0 36-16.1 36-36s-16-36-35.8-36z"/></g></g></svg>