<svg id="Layer_2_00000132800020278326106080000005196534725189367227_" enable-background="new 0 0 512 512" viewBox="71 0 370 512" xmlns="http://www.w3.org/2000/svg"><g id="Icon"><g id="_26"><path d="m441 40v432c0 22.1-17.9 40-40 40h-290c-22.1 0-40-17.9-40-40v-432c0-22.1 17.9-40 40-40h290c22.1 0 40 17.9 40 40z" fill="#f2f2f2"/><g fill="#fe0000"><path d="m145.4 75c-4.7 3.7-9.9 5.6-15.8 5.6-7.9 0-14.4-3.1-19.7-9.3-5.1-6-7.6-13-7.6-20.9s2.5-15 7.6-20.9c5.3-6.3 11.8-9.4 19.7-9.4 9.7 0 17 5 21.9 15.1 3.7 7.8 5.6 17.2 5.6 28.1 0 11.5-1.8 21-5.5 28.5-4.8 9.9-12.3 14.9-22.6 14.9s-17.9-5.1-23.8-15.4l9.4-5.5c3.7 6.6 8.5 9.9 14.4 9.9 8.7 0 14.2-6.9 16.4-20.7zm-15.8-43.9c-4.8 0-8.8 2.1-12 6.2-3 3.8-4.5 8.2-4.5 13.1s1.5 9.3 4.5 13.1c3.2 4.1 7.2 6.2 12 6.2 4.1 0 7.6-1.6 10.6-4.7 2.7-2.8 4.5-6.3 5.5-10.5-1.9-15.6-7.3-23.4-16.1-23.4z"/><path d="m366.6 437c4.7-3.7 9.9-5.6 15.8-5.6 7.9 0 14.4 3.1 19.7 9.3 5.1 6 7.6 13 7.6 20.9s-2.5 15-7.6 20.9c-5.3 6.3-11.8 9.4-19.7 9.4-9.7 0-17-5-21.9-15.1-3.7-7.8-5.6-17.2-5.6-28.1 0-11.5 1.8-21 5.5-28.5 4.8-9.9 12.3-14.9 22.6-14.9s17.9 5.1 23.8 15.4l-9.4 5.5c-3.7-6.6-8.5-9.9-14.4-9.9-8.7 0-14.2 6.9-16.4 20.7zm15.8 43.9c4.8 0 8.8-2.1 12-6.2 3-3.8 4.5-8.1 4.5-13.1s-1.5-9.3-4.5-13.1c-3.2-4.1-7.2-6.2-12-6.2-4.1 0-7.6 1.6-10.6 4.7-2.7 2.8-4.5 6.3-5.5 10.5 1.9 15.6 7.3 23.4 16.1 23.4z"/><path d="m164.1 127.1c-8.4-8.4-21.9-8.4-30.3 0l-3.1 3.1-3.1-3.1c-8.4-8.4-21.9-8.4-30.3 0-8.4 8.4-8.4 21.9 0 30.3l3.1 3.1 30.3 30.3 33.4-33.4c8.4-8.4 8.4-22 0-30.3z"/><path d="m347.9 385c8.4 8.4 21.9 8.4 30.3 0l3.1-3.1 3.1 3.1c8.4 8.4 21.9 8.4 30.3 0 8.4-8.4 8.4-21.9 0-30.3l-3.1-3.1-30.3-30.3-33.4 33.4c-8.4 8.3-8.4 21.9 0 30.3z"/><path d="m328.1 194.1c-18-18-47.3-18-65.3 0l-6.8 6.8-6.8-6.8c-18-18-47.3-18-65.3 0-18 18-18 47.3 0 65.3l6.8 6.8 65.3 65.3 72.1-72.1c18-18 18-47.3 0-65.3z"/></g></g></g></svg>