<svg id="Layer_2_00000132787088533838399490000017498543790963909305_" enable-background="new 0 0 512 512" viewBox="71 0 370 512" xmlns="http://www.w3.org/2000/svg"><g id="Icon"><g id="_13"><path d="m441 40v432c0 22.1-17.9 40-40 40h-290c-22.1 0-40-17.9-40-40v-432c0-22.1 17.9-40 40-40h290c22.1 0 40 17.9 40 40z" fill="#f2f2f2"/><path d="m145.4 75c-4.7 3.7-9.9 5.6-15.8 5.6-7.9 0-14.4-3.1-19.7-9.3-5.1-6-7.6-13-7.6-20.9s2.5-15 7.6-20.9c5.3-6.3 11.8-9.4 19.7-9.4 9.7 0 17 5 21.9 15.1 3.7 7.8 5.6 17.2 5.6 28.1 0 11.5-1.8 21-5.5 28.5-4.8 9.9-12.3 14.9-22.6 14.9s-17.9-5.1-23.8-15.4l9.4-5.5c3.7 6.6 8.5 9.9 14.4 9.9 8.7 0 14.2-6.9 16.4-20.7zm-15.8-43.9c-4.8 0-8.8 2.1-12 6.2-3 3.8-4.5 8.2-4.5 13.1s1.5 9.3 4.5 13.1c3.2 4.1 7.2 6.2 12 6.2 4.1 0 7.6-1.6 10.6-4.7 2.7-2.8 4.5-6.3 5.5-10.5-1.9-15.6-7.3-23.4-16.1-23.4z"/><path d="m366.6 437c4.7-3.7 9.9-5.6 15.8-5.6 7.9 0 14.4 3.1 19.7 9.3 5.1 6 7.6 13 7.6 20.9s-2.5 15-7.6 20.9c-5.3 6.3-11.8 9.4-19.7 9.4-9.7 0-17-5-21.9-15.1-3.7-7.8-5.6-17.2-5.6-28.1 0-11.5 1.8-21 5.5-28.5 4.8-9.9 12.3-14.9 22.6-14.9s17.9 5.1 23.8 15.4l-9.4 5.5c-3.7-6.6-8.5-9.9-14.4-9.9-8.7 0-14.2 6.9-16.4 20.7zm15.8 43.9c4.8 0 8.8-2.1 12-6.2 3-3.8 4.5-8.1 4.5-13.1s-1.5-9.3-4.5-13.1c-3.2-4.1-7.2-6.2-12-6.2-4.1 0-7.6 1.6-10.6 4.7-2.7 2.8-4.5 6.3-5.5 10.5 1.9 15.6 7.3 23.4 16.1 23.4z"/><path d="m353.3 363.2 2.6 2.6 25.4 25.4 28-28c7-7 7-18.4 0-25.4-6.9-6.9-17.9-7-24.9-.4.3-6.7 2.7-12 6.9-16.2h-19.9c4.2 4.2 6.6 9.6 6.9 16.2-7-6.6-18.1-6.5-24.9.4-7.1 7.1-7.1 18.4-.1 25.4z"/><path d="m316.4 240.9-5.7-5.7-54.7-54.6-60.4 60.4c-15.1 15.1-15.1 39.6 0 54.7 14.8 14.8 38.6 15.1 53.8.8-.7 14.4-5.8 25.9-14.8 35h42.9c-9-9.1-14.2-20.6-14.8-35 15.2 14.2 39 14 53.8-.8 15-15.2 15-39.7-.1-54.8z"/><path d="m158.7 148.8-2.6-2.6-25.4-25.4-28 28c-7 7-7 18.4 0 25.4 6.9 6.9 17.9 7 24.9.4-.3 6.7-2.7 12-6.9 16.2h19.9c-4.2-4.2-6.6-9.6-6.9-16.2 7 6.6 18.1 6.5 24.9-.4 7.1-7.1 7.1-18.4.1-25.4z"/></g></g></svg>