<svg id="Layer_2_00000098922596653177777810000001266995233513526455_" enable-background="new 0 0 512 512" viewBox="71 0 370 512" xmlns="http://www.w3.org/2000/svg"><g id="Icon"><g id="_44"><path d="m441 40v432c0 22.1-17.9 40-40 40h-290c-22.1 0-40-17.9-40-40v-432c0-22.1 17.9-40 40-40h290c22.1 0 40 17.9 40 40z" fill="#f2f2f2"/><g fill="#fe0000"><path d="m124.6 95.2v10.1h-22.3v-10.1h7.3l13.8-73.7h12.5l13.9 73.7h7.3v10.1h-22.3v-10.1h4.8l-1.6-8.8h-16.6l-1.7 8.8zm-1.4-18.9h12.9l-6.5-34.5c.1 0-6.4 34.5-6.4 34.5z"/><path d="m387.4 416.8v-10.1h22.3v10.1h-7.3l-13.8 73.7h-12.5l-13.9-73.7h-7.3v-10.1h22.3v10.1h-4.8l1.6 8.8h16.6l1.6-8.8zm1.4 18.9h-13l6.5 34.5z"/><path d="m351.3 356.2 30-35 30 35-30 35z"/><path d="m320.7 256-64.7 75.4-64.7-75.4 64.7-75.4z"/><path d="m160.7 155.8-30 35-30-35 30-35z"/></g></g></g></svg>