<svg id="Layer_2_00000142147284746898841010000004051278464703978686_" enable-background="new 0 0 512 512" viewBox="71 0 370 512" xmlns="http://www.w3.org/2000/svg"><g id="Icon"><g id="_18"><path d="m441 40v432c0 22.1-17.9 40-40 40h-290c-22.1 0-40-17.9-40-40v-432c0-22.1 17.9-40 40-40h290c22.1 0 40 17.9 40 40z" fill="#f2f2f2"/><g fill="#fe0000"><path d="m124.6 95.2v10.1h-22.3v-10.1h7.3l13.8-73.7h12.5l13.9 73.7h7.3v10.1h-22.3v-10.1h4.8l-1.6-8.8h-16.6l-1.7 8.8zm-1.4-18.9h12.9l-6.5-34.5c.1 0-6.4 34.5-6.4 34.5z"/><path d="m387.4 416.8v-10.1h22.3v10.1h-7.3l-13.8 73.7h-12.5l-13.9-73.7h-7.3v-10.1h22.3v10.1h-4.8l1.6 8.8h16.6l1.6-8.8zm1.4 18.9h-13l6.5 34.5z"/><path d="m164.1 127.1c-8.4-8.4-21.9-8.4-30.3 0l-3.1 3.1-3.1-3.1c-8.4-8.4-21.9-8.4-30.3 0-8.4 8.4-8.4 21.9 0 30.3l3.1 3.1 30.3 30.3 33.4-33.4c8.4-8.4 8.4-22 0-30.3z"/><path d="m347.9 385c8.4 8.4 21.9 8.4 30.3 0l3.1-3.1 3.1 3.1c8.4 8.4 21.9 8.4 30.3 0 8.4-8.4 8.4-21.9 0-30.3l-3.1-3.1-30.3-30.3-33.4 33.4c-8.4 8.3-8.4 21.9 0 30.3z"/><path d="m328.1 194.1c-18-18-47.3-18-65.3 0l-6.8 6.8-6.8-6.8c-18-18-47.3-18-65.3 0-18 18-18 47.3 0 65.3l6.8 6.8 65.3 65.3 72.1-72.1c18-18 18-47.3 0-65.3z"/></g></g></g></svg>