<svg id="Layer_2_00000030446544114699341000000008302999907605208215_" enable-background="new 0 0 512 512" viewBox="71 0 370 512" xmlns="http://www.w3.org/2000/svg"><g id="Icon"><g id="_54"><path d="m441 40v432c0 22.1-17.9 40-40 40h-290c-22.1 0-40-17.9-40-40v-432c0-22.1 17.9-40 40-40h290c22.1 0 40 17.9 40 40z" fill="#f2f2f2"/><g fill="#fe0000"><path d="m113.8 75.3c0 4.1 0 5.8 0 5.1 0 4 .8 7.2 2.5 9.6 2 2.9 5 4.3 9 4.3 3.4 0 6.1-1.2 8.2-3.7 1.9-2.3 2.8-5.1 2.8-8.5v-49.5h-9.1v-11.9h29.3v11.9h-8.7v49.5c0 6.7-2 12.4-6.1 16.9-4.3 4.7-9.7 7.1-16.4 7.1s-12.3-2.3-16.6-7-6.5-10.4-6.4-17.1v-6.7z"/><path d="m398.2 436.7c0-4.1 0-5.8 0-5.1 0-4-.8-7.2-2.5-9.6-2-2.9-5-4.3-9-4.3-3.4 0-6.1 1.2-8.2 3.7-1.9 2.3-2.8 5.1-2.8 8.5v49.5h9.1v11.9h-29.3v-11.9h8.7v-49.5c0-6.7 2-12.4 6.1-16.9 4.3-4.7 9.7-7.1 16.4-7.1s12.3 2.3 16.6 7 6.5 10.4 6.4 17.1v6.7z"/><path d="m351.3 356.2 30-35 30 35-30 35z"/><path d="m320.7 256-64.7 75.4-64.7-75.4 64.7-75.4z"/><path d="m160.7 155.8-30 35-30-35 30-35z"/></g></g></g></svg>