<svg id="Layer_2_00000042738222892866514490000015068198676737995144_" enable-background="new 0 0 512 512" viewBox="71 0 370 512" xmlns="http://www.w3.org/2000/svg"><g id="Icon"><g id="_28"><path d="m441 40v432c0 22.1-17.9 40-40 40h-290c-22.1 0-40-17.9-40-40v-432c0-22.1 17.9-40 40-40h290c22.1 0 40 17.9 40 40z" fill="#f2f2f2"/><g fill="#fe0000"><path d="m113.8 75.3c0 4.1 0 5.8 0 5.1 0 4 .8 7.2 2.5 9.6 2 2.9 5 4.3 9 4.3 3.4 0 6.1-1.2 8.2-3.7 1.9-2.3 2.8-5.1 2.8-8.5v-49.5h-9.1v-11.9h29.3v11.9h-8.7v49.5c0 6.7-2 12.4-6.1 16.9-4.3 4.7-9.7 7.1-16.4 7.1s-12.3-2.3-16.6-7-6.5-10.4-6.4-17.1v-6.7z"/><path d="m398.2 436.7c0-4.1 0-5.8 0-5.1 0-4-.8-7.2-2.5-9.6-2-2.9-5-4.3-9-4.3-3.4 0-6.1 1.2-8.2 3.7-1.9 2.3-2.8 5.1-2.8 8.5v49.5h9.1v11.9h-29.3v-11.9h8.7v-49.5c0-6.7 2-12.4 6.1-16.9 4.3-4.7 9.7-7.1 16.4-7.1s12.3 2.3 16.6 7 6.5 10.4 6.4 17.1v6.7z"/><path d="m164.1 127.1c-8.4-8.4-21.9-8.4-30.3 0l-3.1 3.1-3.1-3.1c-8.4-8.4-21.9-8.4-30.3 0-8.4 8.4-8.4 21.9 0 30.3l3.1 3.1 30.3 30.3 33.4-33.4c8.4-8.4 8.4-22 0-30.3z"/><path d="m347.9 385c8.4 8.4 21.9 8.4 30.3 0l3.1-3.1 3.1 3.1c8.4 8.4 21.9 8.4 30.3 0 8.4-8.4 8.4-21.9 0-30.3l-3.1-3.1-30.3-30.3-33.4 33.4c-8.4 8.3-8.4 21.9 0 30.3z"/><path d="m328.1 194.1c-18-18-47.3-18-65.3 0l-6.8 6.8-6.8-6.8c-18-18-47.3-18-65.3 0-18 18-18 47.3 0 65.3l6.8 6.8 65.3 65.3 72.1-72.1c18-18 18-47.3 0-65.3z"/></g></g></g></svg>