<svg id="Layer_2_00000122704717094345598570000014104156613070208953_" enable-background="new 0 0 512 512" viewBox="71 0 370 512" xmlns="http://www.w3.org/2000/svg"><g id="Icon"><g id="_15"><path d="m441 40v432c0 22.1-17.9 40-40 40h-290c-22.1 0-40-17.9-40-40v-432c0-22.1 17.9-40 40-40h290c22.1 0 40 17.9 40 40z" fill="#f2f2f2"/><path d="m113.8 75.3c0 4.1 0 5.8 0 5.1 0 4 .8 7.2 2.5 9.6 2 2.9 5 4.3 9 4.3 3.4 0 6.1-1.2 8.2-3.7 1.9-2.3 2.8-5.1 2.8-8.5v-49.5h-9.1v-11.9h29.3v11.9h-8.7v49.5c0 6.7-2 12.4-6.1 16.9-4.3 4.7-9.7 7.1-16.4 7.1s-12.3-2.3-16.6-7-6.5-10.4-6.4-17.1v-6.7z"/><path d="m398.2 436.7c0-4.1 0-5.8 0-5.1 0-4-.8-7.2-2.5-9.6-2-2.9-5-4.3-9-4.3-3.4 0-6.1 1.2-8.2 3.7-1.9 2.3-2.8 5.1-2.8 8.5v49.5h9.1v11.9h-29.3v-11.9h8.7v-49.5c0-6.7 2-12.4 6.1-16.9 4.3-4.7 9.7-7.1 16.4-7.1s12.3 2.3 16.6 7 6.5 10.4 6.4 17.1v6.7z"/><path d="m353.3 363.2 2.6 2.6 25.4 25.4 28-28c7-7 7-18.4 0-25.4-6.9-6.9-17.9-7-24.9-.4.3-6.7 2.7-12 6.9-16.2h-19.9c4.2 4.2 6.6 9.6 6.9 16.2-7-6.6-18.1-6.5-24.9.4-7.1 7.1-7.1 18.4-.1 25.4z"/><path d="m316.4 240.9-5.7-5.7-54.7-54.6-60.4 60.4c-15.1 15.1-15.1 39.6 0 54.7 14.8 14.8 38.6 15.1 53.8.8-.7 14.4-5.8 25.9-14.8 35h42.9c-9-9.1-14.2-20.6-14.8-35 15.2 14.2 39 14 53.8-.8 15-15.2 15-39.7-.1-54.8z"/><path d="m158.7 148.8-2.6-2.6-25.4-25.4-28 28c-7 7-7 18.4 0 25.4 6.9 6.9 17.9 7 24.9.4-.3 6.7-2.7 12-6.9 16.2h19.9c-4.2-4.2-6.6-9.6-6.9-16.2 7 6.6 18.1 6.5 24.9-.4 7.1-7.1 7.1-18.4.1-25.4z"/></g></g></svg>