<svg id="Layer_2_00000058581725587112857370000005853430566754437302_" enable-background="new 0 0 512 512" viewBox="71 0 370 512" xmlns="http://www.w3.org/2000/svg"><g id="Icon"><g id="_43"><path d="m441 40v432c0 22.1-17.9 40-40 40h-290c-22.1 0-40-17.9-40-40v-432c0-22.1 17.9-40 40-40h290c22.1 0 40 17.9 40 40z" fill="#f2f2f2"/><path d="m102.3 96.2h7.7v-65.6h-7.7v-9.2h23.3v9.2h-6.5v31.9l20.5-31.9h-7.9v-9.2h25.6v9.2h-7.4l-16.6 25.9 17 39.7h7v9.2h-25.6v-9.2h8.3l-12.9-30.1-8 12.4v17.6h6.5v9.2h-23.3z"/><path d="m409.7 415.8h-7.7v65.6h7.7v9.2h-23.3v-9.2h6.5v-31.9l-20.5 31.9h7.9v9.2h-25.6v-9.2h7.4l16.6-25.9-17-39.7h-7v-9.2h25.6v9.2h-8.3l12.9 30 8-12.4v-17.6h-6.5v-9.2h23.3z"/><path d="m147.4 146c-.9 0-1.7.1-2.5.2 1.6-2.6 2.5-5.6 2.5-8.8 0-9.2-7.5-16.7-16.7-16.7s-16.7 7.5-16.7 16.7c0 3.2.9 6.2 2.5 8.8-.8-.1-1.7-.2-2.5-.2-9.2 0-16.7 7.5-16.7 16.7s7.5 16.7 16.7 16.7c5.7 0 10.6-2.8 13.7-7.1.2 7.7-2.2 13.8-6.9 18.5h19.9c-4.7-4.7-7.1-10.8-6.9-18.5 3 4.3 8 7.1 13.7 7.1 9.2 0 16.7-7.5 16.7-16.7s-7.6-16.7-16.8-16.7z"/><path d="m364.6 366c.9 0 1.7-.1 2.5-.2-1.6 2.5-2.5 5.6-2.5 8.8 0 9.2 7.5 16.7 16.7 16.7s16.7-7.5 16.7-16.7c0-3.2-.9-6.2-2.5-8.8.8.1 1.7.2 2.5.2 9.2 0 16.7-7.5 16.7-16.7s-7.5-16.7-16.7-16.7c-5.6 0-10.6 2.8-13.6 7.1-.2-7.7 2.2-13.8 6.9-18.5h-19.9c4.6 4.7 7.1 10.8 6.9 18.5-3-4.3-8-7.1-13.6-7.1-9.2 0-16.7 7.5-16.7 16.7s7.4 16.7 16.6 16.7z"/><path d="m292 235c-1.9 0-3.7.2-5.4.4 3.4-5.5 5.4-12 5.4-18.9 0-19.9-16.1-36-36-36s-36 16.1-36 36c0 7 2 13.4 5.4 18.9-1.8-.3-3.6-.4-5.4-.4-19.9 0-36 16.1-36 36s16.1 36 36 36c12.2 0 22.9-6.1 29.4-15.3.4 16.6-4.8 29.7-14.9 39.8h42.8c-10-10.1-15.2-23.2-14.9-39.8 6.5 9.2 17.2 15.3 29.4 15.3 19.9 0 36-16.1 36-36s-16-36-35.8-36z"/></g></g></svg>