<svg id="Layer_2_00000005976972892995471110000008447521623841883042_" enable-background="new 0 0 512 512" viewBox="71 0 370 512" xmlns="http://www.w3.org/2000/svg"><g id="Icon"><g id="_30"><path d="m441 40v432c0 22.1-17.9 40-40 40h-290c-22.1 0-40-17.9-40-40v-432c0-22.1 17.9-40 40-40h290c22.1 0 40 17.9 40 40z" fill="#f2f2f2"/><g fill="#fe0000"><path d="m102.3 96.2h7.7v-65.6h-7.7v-9.2h23.3v9.2h-6.5v31.9l20.5-31.9h-7.9v-9.2h25.6v9.2h-7.4l-16.6 25.9 17 39.7h7v9.2h-25.6v-9.2h8.3l-12.9-30.1-8 12.4v17.6h6.5v9.2h-23.3z"/><path d="m409.7 415.8h-7.7v65.6h7.7v9.2h-23.3v-9.2h6.5v-31.9l-20.5 31.9h7.9v9.2h-25.6v-9.2h7.4l16.6-25.9-17-39.7h-7v-9.2h25.6v9.2h-8.3l12.9 30 8-12.4v-17.6h-6.5v-9.2h23.3z"/><path d="m164.1 127.1c-8.4-8.4-21.9-8.4-30.3 0l-3.1 3.1-3.1-3.1c-8.4-8.4-21.9-8.4-30.3 0-8.4 8.4-8.4 21.9 0 30.3l3.1 3.1 30.3 30.3 33.4-33.4c8.4-8.4 8.4-22 0-30.3z"/><path d="m347.9 385c8.4 8.4 21.9 8.4 30.3 0l3.1-3.1 3.1 3.1c8.4 8.4 21.9 8.4 30.3 0 8.4-8.4 8.4-21.9 0-30.3l-3.1-3.1-30.3-30.3-33.4 33.4c-8.4 8.3-8.4 21.9 0 30.3z"/><path d="m328.1 194.1c-18-18-47.3-18-65.3 0l-6.8 6.8-6.8-6.8c-18-18-47.3-18-65.3 0-18 18-18 47.3 0 65.3l6.8 6.8 65.3 65.3 72.1-72.1c18-18 18-47.3 0-65.3z"/></g></g></g></svg>