<svg id="Layer_2_00000073713412048041162830000008124161120532585090_" enable-background="new 0 0 512 512" viewBox="71 0 370 512" xmlns="http://www.w3.org/2000/svg"><g id="Icon"><g id="_17"><path d="m441 40v432c0 22.1-17.9 40-40 40h-290c-22.1 0-40-17.9-40-40v-432c0-22.1 17.9-40 40-40h290c22.1 0 40 17.9 40 40z" fill="#f2f2f2"/><path d="m102.3 96.2h7.7v-65.6h-7.7v-9.2h23.3v9.2h-6.5v31.9l20.5-31.9h-7.9v-9.2h25.6v9.2h-7.4l-16.6 25.9 17 39.7h7v9.2h-25.6v-9.2h8.3l-12.9-30.1-8 12.4v17.6h6.5v9.2h-23.3z"/><path d="m409.7 415.8h-7.7v65.6h7.7v9.2h-23.3v-9.2h6.5v-31.9l-20.5 31.9h7.9v9.2h-25.6v-9.2h7.4l16.6-25.9-17-39.7h-7v-9.2h25.6v9.2h-8.3l12.9 30 8-12.4v-17.6h-6.5v-9.2h23.3z"/><path d="m353.3 363.2 2.6 2.6 25.4 25.4 28-28c7-7 7-18.4 0-25.4-6.9-6.9-17.9-7-24.9-.4.3-6.7 2.7-12 6.9-16.2h-19.9c4.2 4.2 6.6 9.6 6.9 16.2-7-6.6-18.1-6.5-24.9.4-7.1 7.1-7.1 18.4-.1 25.4z"/><path d="m316.4 240.9-5.7-5.7-54.7-54.6-60.4 60.4c-15.1 15.1-15.1 39.6 0 54.7 14.8 14.8 38.6 15.1 53.8.8-.7 14.4-5.8 25.9-14.8 35h42.9c-9-9.1-14.2-20.6-14.8-35 15.2 14.2 39 14 53.8-.8 15-15.2 15-39.7-.1-54.8z"/><path d="m158.7 148.8-2.6-2.6-25.4-25.4-28 28c-7 7-7 18.4 0 25.4 6.9 6.9 17.9 7 24.9.4-.3 6.7-2.7 12-6.9 16.2h19.9c-4.2-4.2-6.6-9.6-6.9-16.2 7 6.6 18.1 6.5 24.9-.4 7.1-7.1 7.1-18.4.1-25.4z"/></g></g></svg>