<svg id="Layer_2_00000021090895000198736700000011299959401518759078_" enable-background="new 0 0 512 512" viewBox="71 0 370 512" xmlns="http://www.w3.org/2000/svg"><g id="Icon"><g id="_42"><path d="m441 40v432c0 22.1-17.9 40-40 40h-290c-22.1 0-40-17.9-40-40v-432c0-22.1 17.9-40 40-40h290c22.1 0 40 17.9 40 40z" fill="#f2f2f2"/><path d="m157.1 105c-3.9 0-6.8-.2-8.5-.5-2-.5-3.9-1.4-5.8-2.8-4.2 3.4-8.8 5.1-13.8 5.1-5.4 0-10.2-1.9-14.5-5.8-4.5-4-6.7-8.7-6.7-14v-7.4h-5.5v-9.6c.2-.1 2-.2 5.5-.4v-29.7c0-5.4 2.2-10.1 6.7-14.1 4.3-3.9 9.1-5.8 14.5-5.8s10.3 2 14.7 5.9 6.5 8.6 6.5 14v47.1c0 2.3-.5 4.5-1.4 6.7.9.6 1.8 1 2.6 1.2h5.7zm-39.1-35.4c4.1.5 8.1 2.3 12.2 5.6 2.5 2 5.8 5.2 9.7 9.6v-44.9c0-2.4-1.1-4.6-3.4-6.5s-4.8-2.9-7.4-2.9c-2.7 0-5.2 1-7.5 2.9s-3.5 4.1-3.5 6.5c-.1 0-.1 29.7-.1 29.7zm17 24.8-12.9-12.8c-1.1-1.1-2.4-1.8-4.1-2v7.3c0 2.4 1.2 4.5 3.5 6.5s4.8 2.9 7.5 2.9c2.1 0 4.1-.6 6-1.9z"/><path d="m354.9 407c3.9 0 6.8.2 8.5.5 2 .5 3.9 1.4 5.8 2.8 4.2-3.4 8.8-5.1 13.8-5.1 5.4 0 10.2 1.9 14.5 5.8 4.5 4 6.7 8.7 6.7 14v7.4h5.5v9.6c-.2.1-2 .2-5.5.4v29.7c0 5.4-2.2 10.1-6.7 14.1-4.3 3.9-9.1 5.8-14.5 5.8s-10.3-2-14.6-5.9-6.5-8.6-6.5-14v-47.1c0-2.3.5-4.5 1.4-6.7-.9-.6-1.8-1-2.6-1.2h-5.7zm39.1 35.4c-4.1-.5-8.1-2.3-12.2-5.6-2.5-2-5.8-5.2-9.7-9.6v44.9c0 2.4 1.1 4.6 3.5 6.5 2.3 1.9 4.8 2.9 7.5 2.9s5.2-1 7.5-2.9 3.5-4.1 3.5-6.5v-29.7zm-17-24.8 12.9 12.8c1.1 1.1 2.4 1.8 4.1 2v-7.3c0-2.4-1.2-4.5-3.5-6.5s-4.8-2.9-7.5-2.9c-2.1 0-4.1.6-6 1.9z"/><path d="m147.4 146c-.9 0-1.7.1-2.5.2 1.6-2.6 2.5-5.6 2.5-8.8 0-9.2-7.5-16.7-16.7-16.7s-16.7 7.5-16.7 16.7c0 3.2.9 6.2 2.5 8.8-.8-.1-1.7-.2-2.5-.2-9.2 0-16.7 7.5-16.7 16.7s7.5 16.7 16.7 16.7c5.7 0 10.6-2.8 13.7-7.1.2 7.7-2.2 13.8-6.9 18.5h19.9c-4.7-4.7-7.1-10.8-6.9-18.5 3 4.3 8 7.1 13.7 7.1 9.2 0 16.7-7.5 16.7-16.7s-7.6-16.7-16.8-16.7z"/><path d="m364.6 366c.9 0 1.7-.1 2.5-.2-1.6 2.5-2.5 5.6-2.5 8.8 0 9.2 7.5 16.7 16.7 16.7s16.7-7.5 16.7-16.7c0-3.2-.9-6.2-2.5-8.8.8.1 1.7.2 2.5.2 9.2 0 16.7-7.5 16.7-16.7s-7.5-16.7-16.7-16.7c-5.6 0-10.6 2.8-13.6 7.1-.2-7.7 2.2-13.8 6.9-18.5h-19.9c4.6 4.7 7.1 10.8 6.9 18.5-3-4.3-8-7.1-13.6-7.1-9.2 0-16.7 7.5-16.7 16.7s7.4 16.7 16.6 16.7z"/><path d="m292 235c-1.9 0-3.7.2-5.4.4 3.4-5.5 5.4-12 5.4-18.9 0-19.9-16.1-36-36-36s-36 16.1-36 36c0 7 2 13.4 5.4 18.9-1.8-.3-3.6-.4-5.4-.4-19.9 0-36 16.1-36 36s16.1 36 36 36c12.2 0 22.9-6.1 29.4-15.3.4 16.6-4.8 29.7-14.9 39.8h42.8c-10-10.1-15.2-23.2-14.9-39.8 6.5 9.2 17.2 15.3 29.4 15.3 19.9 0 36-16.1 36-36s-16-36-35.8-36z"/></g></g></svg>