<svg id="Layer_2_00000148638330984866572360000008954378125343724979_" enable-background="new 0 0 512 512" viewBox="71 0 370 512" xmlns="http://www.w3.org/2000/svg"><g id="Icon"><g id="_29"><path d="m441 40v432c0 22.1-17.9 40-40 40h-290c-22.1 0-40-17.9-40-40v-432c0-22.1 17.9-40 40-40h290c22.1 0 40 17.9 40 40z" fill="#f2f2f2"/><g fill="#fe0000"><path d="m157.1 105c-3.9 0-6.8-.2-8.5-.5-2-.5-3.9-1.4-5.8-2.8-4.2 3.4-8.8 5.1-13.8 5.1-5.4 0-10.2-1.9-14.5-5.8-4.5-4-6.7-8.7-6.7-14v-7.4h-5.5v-9.6c.2-.1 2-.2 5.5-.4v-29.7c0-5.4 2.2-10.1 6.7-14.1 4.3-3.9 9.1-5.8 14.5-5.8s10.3 2 14.7 5.9 6.5 8.6 6.5 14v47.1c0 2.3-.5 4.5-1.4 6.7.9.6 1.8 1 2.6 1.2h5.7zm-39.1-35.4c4.1.5 8.1 2.3 12.2 5.6 2.5 2 5.8 5.2 9.7 9.6v-44.9c0-2.4-1.1-4.6-3.4-6.5s-4.8-2.9-7.4-2.9c-2.7 0-5.2 1-7.5 2.9s-3.5 4.1-3.5 6.5c-.1 0-.1 29.7-.1 29.7zm17 24.8-12.9-12.8c-1.1-1.1-2.4-1.8-4.1-2v7.3c0 2.4 1.2 4.5 3.5 6.5s4.8 2.9 7.5 2.9c2.1 0 4.1-.6 6-1.9z"/><path d="m354.9 407c3.9 0 6.8.2 8.5.5 2 .5 3.9 1.4 5.8 2.8 4.2-3.4 8.8-5.1 13.8-5.1 5.4 0 10.2 1.9 14.5 5.8 4.5 4 6.7 8.7 6.7 14v7.4h5.5v9.6c-.2.1-2 .2-5.5.4v29.7c0 5.4-2.2 10.1-6.7 14.1-4.3 3.9-9.1 5.8-14.5 5.8s-10.3-2-14.6-5.9-6.5-8.6-6.5-14v-47.1c0-2.3.5-4.5 1.4-6.7-.9-.6-1.8-1-2.6-1.2h-5.7zm39.1 35.4c-4.1-.5-8.1-2.3-12.2-5.6-2.5-2-5.8-5.2-9.7-9.6v44.9c0 2.4 1.1 4.6 3.5 6.5 2.3 1.9 4.8 2.9 7.5 2.9s5.2-1 7.5-2.9 3.5-4.1 3.5-6.5v-29.7zm-17-24.8 12.9 12.8c1.1 1.1 2.4 1.8 4.1 2v-7.3c0-2.4-1.2-4.5-3.5-6.5s-4.8-2.9-7.5-2.9c-2.1 0-4.1.6-6 1.9z"/><path d="m164.1 127.1c-8.4-8.4-21.9-8.4-30.3 0l-3.1 3.1-3.1-3.1c-8.4-8.4-21.9-8.4-30.3 0-8.4 8.4-8.4 21.9 0 30.3l3.1 3.1 30.3 30.3 33.4-33.4c8.4-8.4 8.4-22 0-30.3z"/><path d="m347.9 385c8.4 8.4 21.9 8.4 30.3 0l3.1-3.1 3.1 3.1c8.4 8.4 21.9 8.4 30.3 0 8.4-8.4 8.4-21.9 0-30.3l-3.1-3.1-30.3-30.3-33.4 33.4c-8.4 8.3-8.4 21.9 0 30.3z"/><path d="m328.1 194.1c-18-18-47.3-18-65.3 0l-6.8 6.8-6.8-6.8c-18-18-47.3-18-65.3 0-18 18-18 47.3 0 65.3l6.8 6.8 65.3 65.3 72.1-72.1c18-18 18-47.3 0-65.3z"/></g></g></g></svg>